<svg width="734" height="546" viewBox="0 0 734 546" fill="none" xmlns="http://www.w3.org/2000/svg">
<g clip-path="url(#clip0_108_3)">
<path d="M712.826 463.709C709.508 437.031 692.975 410.745 667.532 402.063C677.566 429.522 677.564 459.646 667.526 487.104C663.616 497.679 658.167 509.034 661.844 519.693C664.132 526.324 669.73 531.398 675.987 534.571C682.244 537.744 689.188 539.256 696.045 540.738L697.395 541.854C708.281 517.273 716.144 490.387 712.826 463.709Z" fill="#F0F0F0"/>
<path d="M667.279 402.568C682.096 419.169 691.305 440.018 693.598 462.151C694.177 466.907 694.002 471.725 693.08 476.426C692.034 480.977 689.788 485.165 686.576 488.555C683.645 491.775 680.274 494.73 678.177 498.607C677.132 500.607 676.523 502.806 676.388 505.059C676.253 507.311 676.596 509.567 677.394 511.678C679.246 516.989 682.896 521.318 686.612 525.427C690.738 529.99 695.096 534.664 696.85 540.712C697.062 541.445 698.187 541.073 697.975 540.341C694.924 529.817 684.707 523.839 679.835 514.36C677.562 509.937 676.608 504.802 678.739 500.133C680.603 496.051 684.077 493.001 687.073 489.765C690.255 486.505 692.59 482.514 693.874 478.143C695.032 473.504 695.392 468.701 694.939 463.941C694.09 453.207 691.559 442.674 687.438 432.727C682.797 421.349 676.245 410.848 668.063 401.679C667.557 401.112 666.776 402.004 667.279 402.568Z" fill="white"/>
<path d="M693.28 454.981C696.941 454.092 700.167 451.931 702.382 448.883C704.597 445.835 705.656 442.099 705.37 438.342C705.31 437.582 704.126 437.64 704.187 438.401C704.459 441.899 703.472 445.379 701.404 448.213C699.335 451.047 696.322 453.048 692.908 453.856C692.166 454.032 692.542 455.156 693.28 454.981Z" fill="white"/>
<path d="M688.278 487.117C681.665 483.169 676.783 476.873 674.606 469.485C674.391 468.753 673.266 469.126 673.481 469.857C675.761 477.541 680.854 484.082 687.745 488.176C688.402 488.565 688.931 487.505 688.278 487.117Z" fill="white"/>
<path d="M681.698 422.471C680.353 423.111 678.87 423.406 677.383 423.33C675.896 423.255 674.451 422.811 673.178 422.039C672.526 421.641 671.997 422.702 672.645 423.097C674.056 423.944 675.652 424.432 677.295 424.519C678.938 424.606 680.577 424.289 682.07 423.597C682.216 423.543 682.336 423.436 682.406 423.297C682.476 423.158 682.49 422.997 682.446 422.848C682.396 422.7 682.29 422.576 682.15 422.506C682.01 422.435 681.847 422.423 681.698 422.471Z" fill="white"/>
<path d="M589.979 449.714C590.378 449.974 590.778 450.234 591.179 450.504C596.537 454.027 601.6 457.98 606.318 462.324C606.688 462.654 607.059 462.994 607.418 463.334C618.674 473.919 627.866 486.502 634.528 500.444C637.174 505.994 639.394 511.737 641.168 517.624C643.619 525.754 645.628 534.764 650.479 541.414C650.977 542.113 651.518 542.781 652.099 543.414H695.929C696.028 543.364 696.128 543.324 696.229 543.274L697.979 543.354C697.908 543.044 697.829 542.724 697.758 542.414C697.718 542.234 697.668 542.054 697.628 541.874C697.599 541.754 697.568 541.634 697.548 541.524C697.539 541.484 697.528 541.444 697.519 541.414C697.499 541.304 697.468 541.204 697.448 541.104C697.008 539.314 696.555 537.524 696.088 535.734C696.088 535.724 696.088 535.724 696.079 535.714C692.488 522.084 687.729 508.634 681.079 496.334C680.878 495.964 680.679 495.584 680.458 495.214C677.43 489.686 673.955 484.415 670.068 479.454C667.931 476.744 665.658 474.144 663.258 471.664C657.045 465.267 649.864 459.888 641.979 455.724C626.258 447.424 608.059 444.244 591.258 449.314C590.829 449.444 590.408 449.574 589.979 449.714Z" fill="#F0F0F0"/>
<path d="M590.077 450.27C611.903 454.605 631.808 465.707 646.965 481.998C650.29 485.447 653.05 489.399 655.145 493.708C657.05 497.972 657.778 502.667 657.254 507.308C656.853 511.644 655.94 516.033 656.6 520.391C656.971 522.617 657.808 524.74 659.056 526.619C660.305 528.499 661.937 530.093 663.845 531.298C668.521 534.424 674.041 535.683 679.483 536.727C685.524 537.886 691.818 538.994 696.86 542.767C697.471 543.225 698.145 542.25 697.535 541.793C688.762 535.228 677.006 536.606 667.409 531.97C662.931 529.808 659.077 526.282 657.968 521.271C656.998 516.889 657.935 512.362 658.38 507.975C658.957 503.456 658.419 498.865 656.813 494.601C654.944 490.2 652.34 486.148 649.113 482.62C641.972 474.561 633.61 467.675 624.33 462.214C613.775 455.923 602.221 451.484 590.168 449.088C589.422 448.941 589.336 450.123 590.077 450.27Z" fill="white"/>
<path d="M642.393 476.465C644.781 473.551 646.056 469.883 645.989 466.116C645.922 462.349 644.519 458.728 642.029 455.9C641.523 455.33 640.613 456.089 641.119 456.66C643.443 459.289 644.75 462.662 644.805 466.17C644.86 469.678 643.659 473.09 641.419 475.79C640.933 476.378 641.91 477.049 642.393 476.465Z" fill="white"/>
<path d="M657.748 505.136C650.091 505.964 642.402 503.877 636.216 499.289C635.604 498.834 634.93 499.808 635.542 500.263C641.988 505.025 649.993 507.181 657.959 506.301C658.719 506.217 658.503 505.052 657.748 505.136Z" fill="white"/>
<path d="M613.573 457.481C612.884 458.801 611.878 459.929 610.645 460.764C609.412 461.599 607.991 462.115 606.509 462.265C605.749 462.34 605.966 463.505 606.721 463.431C608.357 463.258 609.926 462.686 611.29 461.766C612.654 460.847 613.772 459.607 614.547 458.156C614.631 458.025 614.663 457.867 614.635 457.714C614.607 457.561 614.522 457.424 614.397 457.331C614.268 457.242 614.109 457.208 613.954 457.237C613.8 457.265 613.663 457.352 613.573 457.481Z" fill="white"/>
<path d="M121.202 0H484.397V119.231H470.64V150.414L439.456 119.231H121.202V0Z" fill="#E4E4E4"/>
<path d="M474.808 107.495H130.79V11.1105H399.89C419.753 11.1329 438.795 19.0332 452.841 33.0782C466.886 47.1232 474.786 66.1659 474.808 86.0285V107.495Z" fill="white"/>
<path d="M363.195 171.414H0V290.644H13.757V321.828L44.941 290.644H363.195V171.414Z" fill="#E4E4E4"/>
<path d="M353.607 278.909H70.723C54.5148 278.891 38.9757 272.444 27.5148 260.983C16.0538 249.522 9.60699 233.983 9.58862 217.775V182.524H353.607V278.909Z" fill="white"/>
<path d="M328.795 211.79H40.4242V216.802H328.795V211.79Z" fill="#F7BF28"/>
<path d="M328.275 229.128H40.4242V234.14H328.275V229.128Z" fill="#E6E6E6"/>
<path d="M327.993 246.466H40.4242V251.478H327.993V246.466Z" fill="#E6E6E6"/>
<path d="M241.393 79.1422L223.125 60.8739C220.666 58.4158 219.257 55.1002 219.192 51.6242C219.128 48.1482 220.414 44.7827 222.78 42.2353C225.146 39.6879 228.407 38.1571 231.878 37.9648C235.35 37.7724 238.76 38.9335 241.393 41.2039C244.026 38.9339 247.436 37.7731 250.907 37.9656C254.378 38.1581 257.64 39.6888 260.005 42.2361C262.371 44.7833 263.657 48.1485 263.593 51.6243C263.529 55.1001 262.12 58.4157 259.662 60.8739L241.393 79.1422ZM232.622 40.0043C230.372 40.0028 228.172 40.669 226.3 41.9185C224.429 43.168 222.97 44.9447 222.109 47.0236C221.247 49.1025 221.022 51.3902 221.461 53.5972C221.901 55.8041 222.985 57.8311 224.577 59.4215L241.393 76.2374L258.209 59.4215C259.267 58.3652 260.106 57.1109 260.678 55.7303C261.251 54.3497 261.546 52.8698 261.546 51.3751C261.547 49.8805 261.252 48.4004 260.681 47.0195C260.109 45.6386 259.271 44.3838 258.214 43.327C257.157 42.2701 255.902 41.4318 254.521 40.86C253.14 40.2883 251.66 39.9942 250.166 39.9946C248.671 39.995 247.191 40.2899 245.81 40.8624C244.43 41.4349 243.175 42.2739 242.119 43.3313L241.393 44.0575L240.667 43.3313C239.611 42.2743 238.357 41.4363 236.976 40.8653C235.596 40.2944 234.116 40.0018 232.622 40.0043Z" fill="#F7BF28"/>
<path d="M305.074 49.2542C304.511 48.6928 303.748 48.3779 302.953 48.3785C302.157 48.3791 301.395 48.6952 300.833 49.2574C300.271 49.8196 299.954 50.5819 299.954 51.377C299.953 52.1722 300.268 52.9351 300.829 53.4983L305.074 57.743L309.318 53.4986C309.598 53.2201 309.819 52.8892 309.971 52.5249C310.122 52.1606 310.201 51.77 310.201 51.3754C310.201 50.9809 310.124 50.5901 309.973 50.2255C309.822 49.8609 309.601 49.5297 309.322 49.2506C309.043 48.9716 308.712 48.7504 308.347 48.5995C307.983 48.4486 307.592 48.3711 307.197 48.3714C306.803 48.3717 306.412 48.4498 306.048 48.6012C305.684 48.7527 305.352 48.9747 305.074 49.2542Z" fill="#F7BF28"/>
<path d="M287.613 49.2542C287.05 48.6919 286.287 48.3761 285.491 48.3763C284.695 48.3765 283.932 48.6926 283.37 49.2552C282.807 49.8178 282.491 50.5807 282.491 51.3764C282.49 52.1721 282.806 52.9353 283.368 53.4983L287.613 57.743L291.857 53.4986C292.137 53.2201 292.359 52.8892 292.51 52.5249C292.662 52.1606 292.74 51.77 292.74 51.3754C292.74 50.9809 292.663 50.5901 292.512 50.2255C292.361 49.8609 292.14 49.5297 291.861 49.2506C291.582 48.9716 291.251 48.7504 290.886 48.5995C290.522 48.4486 290.131 48.3711 289.737 48.3714C289.342 48.3717 288.951 48.4498 288.587 48.6012C288.223 48.7527 287.891 48.9747 287.613 49.2542Z" fill="#F7BF28"/>
<path d="M296.735 81.0806C292.266 81.0806 287.897 79.7553 284.181 77.2724C280.465 74.7895 277.569 71.2604 275.858 67.1315C274.148 63.0025 273.701 58.4591 274.573 54.0759C275.445 49.6926 277.597 45.6663 280.757 42.5062C283.917 39.346 287.943 37.1939 292.326 36.322C296.71 35.4502 301.253 35.8976 305.382 37.6079C309.511 39.3182 313.04 42.2144 315.523 45.9303C318.006 49.6463 319.331 54.0151 319.331 58.4842C319.324 64.4751 316.942 70.2186 312.705 74.4548C308.469 78.6909 302.726 81.0738 296.735 81.0806ZM296.735 37.9421C292.672 37.9421 288.7 39.1469 285.322 41.4041C281.944 43.6613 279.311 46.8695 277.756 50.6231C276.202 54.3767 275.795 58.507 276.587 62.4918C277.38 66.4766 279.336 70.1368 282.209 73.0097C285.082 75.8826 288.742 77.839 292.727 78.6317C296.712 79.4243 300.842 79.0175 304.596 77.4627C308.349 75.9079 311.558 73.275 313.815 69.8968C316.072 66.5187 317.277 62.5471 317.277 58.4842C317.277 55.7866 316.746 53.1154 315.713 50.6231C314.681 48.1308 313.168 45.8662 311.26 43.9587C309.353 42.0512 307.088 40.5381 304.596 39.5058C302.104 38.4734 299.432 37.9421 296.735 37.9421Z" fill="#F7BF28"/>
<path d="M352.198 81.0806C347.729 81.0806 343.361 79.7553 339.645 77.2724C335.929 74.7895 333.032 71.2604 331.322 67.1315C329.612 63.0025 329.164 58.4591 330.036 54.0759C330.908 49.6926 333.06 45.6663 336.22 42.5062C339.381 39.346 343.407 37.1939 347.79 36.322C352.173 35.4502 356.717 35.8976 360.846 37.6079C364.975 39.3182 368.504 42.2144 370.987 45.9303C373.47 49.6463 374.795 54.0151 374.795 58.4842C374.788 64.4751 372.405 70.2186 368.169 74.4548C363.933 78.6909 358.189 81.0738 352.198 81.0806ZM352.198 37.9421C348.136 37.9421 344.164 39.1469 340.786 41.4041C337.408 43.6613 334.775 46.8695 333.22 50.6231C331.665 54.3767 331.258 58.507 332.051 62.4918C332.844 66.4766 334.8 70.1368 337.673 73.0097C340.546 75.8826 344.206 77.839 348.191 78.6317C352.176 79.4243 356.306 79.0175 360.06 77.4627C363.813 75.9079 367.021 73.275 369.279 69.8968C371.536 66.5187 372.741 62.5471 372.741 58.4842C372.741 55.7866 372.209 53.1154 371.177 50.6231C370.145 48.1308 368.632 45.8662 366.724 43.9587C364.816 42.0512 362.552 40.5381 360.06 39.5058C357.567 38.4734 354.896 37.9421 352.198 37.9421Z" fill="#F7BF28"/>
<path d="M361.443 56.43C364.279 56.43 366.578 54.1307 366.578 51.2945C366.578 48.4582 364.279 46.1589 361.443 46.1589C358.606 46.1589 356.307 48.4582 356.307 51.2945C356.307 54.1307 358.606 56.43 361.443 56.43Z" fill="#F7BF28"/>
<path d="M343.982 56.43C346.818 56.43 349.117 54.1307 349.117 51.2945C349.117 48.4582 346.818 46.1589 343.982 46.1589C341.145 46.1589 338.846 48.4582 338.846 51.2945C338.846 54.1307 341.145 56.43 343.982 56.43Z" fill="#F7BF28"/>
<path d="M345.796 62.5927C343.701 77.0899 360.331 80.0305 358.666 62.5921C358.765 62.5803 346.467 62.6016 345.796 62.5927Z" fill="#F7BF28"/>
<path d="M288.821 65.6015C293.518 71.9155 301.638 72.4825 305.979 65.6015H288.821Z" fill="#F7BF28"/>
<path d="M583.591 532.478H571.331L565.499 485.19H583.593L583.591 532.478Z" fill="#9E616A"/>
<path d="M586.717 544.362L547.187 544.361V543.861C547.187 539.78 548.808 535.867 551.694 532.981C554.579 530.096 558.492 528.475 562.573 528.475H562.574L586.718 528.476L586.717 544.362Z" fill="#5063A2"/>
<path d="M491.214 532.075L479.406 528.776L486.513 481.663L503.94 486.532L491.214 532.075Z" fill="#9E616A"/>
<path d="M491.027 544.362L452.955 533.724L453.089 533.242C454.188 529.312 456.802 525.979 460.358 523.977C463.913 521.974 468.118 521.466 472.049 522.564L472.049 522.564L495.303 529.062L491.027 544.362Z" fill="#5063A2"/>
<path d="M554.587 136.354C569.4 136.354 581.408 124.346 581.408 109.533C581.408 94.7201 569.4 82.712 554.587 82.712C539.774 82.712 527.766 94.7201 527.766 109.533C527.766 124.346 539.774 136.354 554.587 136.354Z" fill="#9E616A"/>
<path d="M567.282 243.782L569.408 258.337C569.408 258.337 596.229 311.652 567.118 337.819C567.118 337.819 523.616 469.007 511.187 486.669L500.795 508.414L480.795 505.414L493.198 430.738L514.131 324.081L517.238 240.838C517.238 240.838 563.03 237.568 567.282 243.782Z" fill="#5063A2"/>
<path d="M562.212 334.529L576.931 417.963C576.931 417.963 584.781 456.232 585.435 470.95C586.09 485.669 588.706 504.64 588.706 504.64L562.212 508.892L536.046 396.675L562.212 334.529Z" fill="#5063A2"/>
<path d="M583.795 171.414L581.89 219.98L571.829 242.235L568.1 250.487L514.131 249.833L519.691 212.219C511.841 191.939 530.485 183.762 530.485 183.762L546.185 167.032L544.795 145.414L568.427 140.914C580.725 138.573 574.795 156.414 574.795 156.414C591.149 154.778 583.795 171.414 583.795 171.414Z" fill="#F7BF28"/>
<path d="M475.645 217.414C475.834 217.116 475.343 216.467 474.549 215.964C473.755 215.462 472.958 215.295 472.77 215.593C472.581 215.891 473.072 216.54 473.866 217.042C474.66 217.545 475.456 217.711 475.645 217.414Z" fill="#786D4F"/>
<path d="M472.858 211.874C473.067 211.543 473.339 211.257 473.659 211.032C473.979 210.807 474.34 210.647 474.721 210.561C475.103 210.476 475.497 210.466 475.883 210.533C476.268 210.6 476.636 210.742 476.967 210.951L514.702 234.847C515.032 235.056 515.318 235.328 515.543 235.648C515.768 235.968 515.928 236.328 516.014 236.71C516.1 237.092 516.109 237.486 516.043 237.872C515.976 238.257 515.834 238.625 515.624 238.955L472.858 211.874Z" fill="#F7BF28"/>
<path d="M469.29 213.138L470.477 211.263C470.766 210.807 471.224 210.484 471.75 210.366C472.277 210.248 472.829 210.344 473.285 210.632L516.249 237.84C516.789 238.182 517.171 238.724 517.311 239.348C517.451 239.971 517.338 240.625 516.996 241.165L516.01 242.723L469.29 213.138Z" fill="#786D4F"/>
<path d="M475.687 214.167L475.232 214.886L478.107 216.707L478.562 215.988L475.687 214.167Z" fill="#D0CDE1"/>
<path d="M479.64 216.671L479.185 217.389L482.06 219.21L482.515 218.491L479.64 216.671Z" fill="#D0CDE1"/>
<path d="M509.677 222.667C510.139 222.972 510.575 223.313 510.983 223.687L559.159 211.913L562.551 200.352L580.667 203.192L576.65 224.242C576.325 225.942 575.458 227.491 574.178 228.657C572.898 229.822 571.274 230.541 569.551 230.706L513.384 236.059C512.45 237.976 510.955 239.562 509.098 240.609C507.241 241.655 505.109 242.11 502.986 241.915C500.864 241.72 498.851 240.884 497.215 239.517C495.579 238.15 494.399 236.317 493.83 234.263C493.261 232.208 493.332 230.029 494.032 228.016C494.732 226.002 496.028 224.25 497.748 222.991C499.468 221.732 501.531 221.027 503.662 220.969C505.793 220.911 507.891 221.504 509.677 222.667Z" fill="#9E616A"/>
<path d="M557.699 209.523C557.36 208.972 557.145 208.354 557.067 207.712C556.989 207.07 557.051 206.419 557.247 205.803L564.114 165.287C564.646 162.021 566.451 159.099 569.133 157.162C571.816 155.225 575.157 154.431 578.424 154.954C581.692 155.476 584.618 157.274 586.562 159.951C588.506 162.629 589.309 165.968 588.795 169.237L588.465 210.893C588.456 211.54 588.307 212.177 588.029 212.761C587.752 213.345 587.351 213.862 586.855 214.277C586.36 214.692 585.78 214.996 585.157 215.167C584.533 215.338 583.88 215.373 583.242 215.269L560.81 211.611C560.172 211.508 559.564 211.267 559.027 210.907C558.49 210.546 558.037 210.074 557.699 209.523Z" fill="#F7BF28"/>
<path d="M567.295 76.4137C562.17 76.407 557.138 77.7893 552.736 80.4137H550.795C543.634 80.4137 536.767 83.2583 531.703 88.3218C526.64 93.3853 523.795 100.253 523.795 107.414H538.795V139.414H595.795V104.914C595.795 97.355 592.792 90.1059 587.448 84.7611C582.103 79.4163 574.854 76.4137 567.295 76.4137Z" fill="#5063A2"/>
<path d="M732.292 545.691H316.998C316.842 545.691 316.686 545.661 316.542 545.601C316.397 545.542 316.265 545.454 316.154 545.344C316.043 545.233 315.955 545.101 315.895 544.957C315.835 544.812 315.804 544.657 315.804 544.5C315.804 544.344 315.835 544.189 315.895 544.044C315.955 543.899 316.043 543.768 316.154 543.657C316.265 543.547 316.397 543.459 316.542 543.399C316.686 543.34 316.842 543.309 316.998 543.31H732.292C732.449 543.309 732.604 543.34 732.749 543.399C732.894 543.459 733.026 543.547 733.136 543.657C733.247 543.768 733.335 543.899 733.396 544.044C733.456 544.189 733.486 544.344 733.486 544.5C733.486 544.657 733.456 544.812 733.396 544.957C733.335 545.101 733.247 545.233 733.136 545.344C733.026 545.454 732.894 545.542 732.749 545.601C732.604 545.661 732.449 545.691 732.292 545.691Z" fill="#CACACA"/>
</g>
<defs>
<clipPath id="clip0_108_3">
<rect width="733.483" height="545.691" fill="white"/>
</clipPath>
</defs>
</svg>
